<svg width="266" height="445" viewBox="0 0 266 445" fill="none" xmlns="http://www.w3.org/2000/svg">
<path d="M210.177 444.499L64.9932 444.499L64.9932 299.315L210.177 299.315L210.177 444.499Z" stroke="#F7C745"/>
<path d="M176.891 120.901L116.794 60.8042L176.891 0.706959L236.989 60.8042L176.891 120.901Z" stroke="#4BCBC9"/>
<path d="M79.6062 180.029C47.6723 174.283 17.0262 195.975 11.1739 228.503C5.32221 261.029 26.4858 292.045 58.4196 297.79C90.3535 303.535 121 281.841 126.852 249.315C132.704 216.79 111.54 185.774 79.6062 180.029ZM76.2228 198.834C97.9816 202.749 112.374 223.868 108.393 245.994C104.413 268.12 83.5617 282.899 61.803 278.984C40.0443 275.07 25.6518 253.95 29.6325 231.824C33.6131 209.698 54.4641 194.92 76.2228 198.834Z" stroke="#FF7066"/>
<path d="M83.1038 160.584C61.5175 156.701 47.114 136.183 50.7228 114.611L32.2662 111.291C26.8246 143.054 48.008 173.326 79.7858 179.043C111.564 184.761 141.969 163.773 147.94 132.102L129.478 128.78C125.342 150.257 104.69 164.468 83.1038 160.584Z" stroke="#FF7066"/>
<path d="M211.688 298.643L265.087 298.643L238.386 245.277L211.688 298.643Z" stroke="#4BCBC9"/>
<path d="M156.666 298.643L210.069 298.643L183.368 245.277L156.666 298.643Z" stroke="#4BCBC9"/>
<path d="M211.688 243.659L265.087 243.659L238.386 190.296L211.688 243.659Z" stroke="#4BCBC9"/>
<path d="M156.666 243.659L210.069 243.659L183.368 190.296L156.666 243.659Z" stroke="#4BCBC9"/>
<path d="M177.355 189.753C196.075 189.753 211.251 174.577 211.251 155.857C211.251 137.136 196.075 121.96 177.355 121.96C158.635 121.96 143.459 137.136 143.459 155.857C143.459 174.577 158.635 189.753 177.355 189.753Z" stroke="#F7C745"/>
</svg>
