<svg width="229" height="348" viewBox="0 0 229 348" fill="none" xmlns="http://www.w3.org/2000/svg">
<path d="M114.494 76.8352C72.2236 76.8352 37.9296 42.7074 37.6607 0.500003L0.501083 0.5C0.770473 63.2275 51.7093 114 114.5 114C177.291 114 228.23 63.2331 228.499 0.50002L191.328 0.500017C191.059 42.7074 156.765 76.8352 114.494 76.8352Z" stroke="#FF7066"/>
<path d="M114.5 114.999C51.5509 114.999 0.500016 166.942 0.50001 231.043C0.500005 295.138 51.5509 347.088 114.5 347.088C177.449 347.088 228.5 295.138 228.5 231.043C228.5 166.948 177.449 114.999 114.5 114.999ZM114.5 152.845C156.946 152.845 191.335 187.861 191.335 231.043C191.335 274.225 156.946 309.242 114.5 309.242C72.0541 309.242 37.6648 274.225 37.6648 231.043C37.6648 187.861 72.0542 152.845 114.5 152.845Z" stroke="#FF7066"/>
</svg>
