<?xml version="1.0" encoding="UTF-8"?>
<svg xmlns="http://www.w3.org/2000/svg" id="Calque_2" data-name="Calque 2" viewBox="0 0 897.13 179.07">
  <defs>
    <style>
      .cls-1 {
        fill: #00ffb5;
      }

      .cls-2 {
        fill: #fff;
      }
    </style>
  </defs>
  <g id="Calque_1-2" data-name="Calque 1">
    <g>
      <path id="Tracé_18793" data-name="Tracé 18793" class="cls-2" d="M75.58,0H0V179.07H39.53v-55.14h32.59c22.25,0,39.44-5.52,51.55-16.56,12.11-11.04,18.16-26.44,18.16-46.21,0-19.05-5.88-34.01-17.63-44.87C112.44,5.43,96.24,0,75.58,0m19.1,83.06c-5.97,4.99-14.65,7.48-26.04,7.48h-29.11V33.39h33.12c9.61,0,17.18,2.49,22.7,7.48,5.52,4.99,8.28,11.93,8.28,20.83s-2.98,16.38-8.95,21.37"></path>
      <path id="Tracé_18794" data-name="Tracé 18794" class="cls-2" d="M221.14,48.88c-20.66,0-37.13,6.77-49.41,20.3-12.28,13.53-18.43,30.71-18.43,51.55,0,21.73,6.41,39.53,19.23,53.42,1.6,1.74,3.3,3.38,5.09,4.93h93.21c7.94-7.23,13.83-16.77,17.62-28.7l-37.39-2.67c-4.45,11.93-13.36,17.9-26.71,17.89-9.44,0-17.01-2.94-22.7-8.81s-8.9-13.98-9.61-24.3h99.89v-6.41c0-23.5-6.59-42.29-19.76-56.35-13.18-13.89-30.18-20.83-51.01-20.83m-29.38,57.96c.89-9.25,4.09-16.73,9.61-22.44,5.52-5.34,12.55-8.01,21.1-8.01,8.55,0,15.5,2.67,20.83,8.01,5.34,5.34,8.55,12.82,9.61,22.44h-61.16Z"></path>
      <path id="Tracé_18795" data-name="Tracé 18795" class="cls-2" d="M376.85,48.88c-20.66,0-37.13,6.77-49.41,20.3-12.28,13.53-18.43,30.71-18.43,51.55,0,21.73,6.41,39.53,19.23,53.42,1.6,1.74,3.3,3.38,5.09,4.93h93.21c7.94-7.23,13.83-16.77,17.62-28.7l-37.39-2.67c-4.45,11.93-13.36,17.9-26.71,17.89-9.44,0-17.01-2.94-22.7-8.81s-8.9-13.98-9.61-24.3h99.89v-6.41c0-23.5-6.59-42.29-19.76-56.35-13.18-13.89-30.18-20.83-51.01-20.83m-29.38,57.95c.89-9.25,4.09-16.73,9.61-22.44,5.52-5.34,12.55-8.01,21.1-8.01,8.55,0,15.5,2.67,20.83,8.01,5.34,5.34,8.55,12.82,9.61,22.44h-61.16Z"></path>
      <path id="Tracé_18796" data-name="Tracé 18796" class="cls-2" d="M544.31,117.52l44.34-65.17h-39.8l-23.24,38.73-21.37-38.73h-43l44.34,65.44-43.2,61.28h41.14l20.74-34.04,18.73,34.04h42.5l-41.19-61.55Z"></path>
      <path id="Tracé_18797" data-name="Tracé 18797" class="cls-1" d="M668.24,48.88c-20.66,0-37.13,6.77-49.41,20.3-12.28,13.53-18.43,30.71-18.43,51.55,0,21.73,6.41,39.53,19.23,53.42,1.6,1.74,3.3,3.38,5.09,4.93h93.21c7.94-7.23,13.83-16.77,17.62-28.7l-37.39-2.67c-4.45,11.93-13.36,17.9-26.71,17.89-9.44,0-17.01-2.94-22.7-8.81s-8.9-13.98-9.62-24.3h99.89v-6.41c0-23.5-6.59-42.29-19.76-56.35-13.18-13.89-30.18-20.83-51.01-20.83m-29.38,57.95c.89-9.25,4.09-16.73,9.61-22.44,5.52-5.34,12.55-8.01,21.1-8.01s15.5,2.67,20.83,8.01c5.34,5.34,8.55,12.82,9.61,22.44h-61.16Z"></path>
      <path id="Tracé_18798" data-name="Tracé 18798" class="cls-1" d="M877.36,69.44c-13.18-13.71-30.09-20.56-50.74-20.56-20.65,0-37.57,6.85-50.75,20.56-13.18,14.07-19.77,31.52-19.77,52.35,0,21.01,6.59,38.38,19.77,52.08,1.72,1.83,3.53,3.57,5.44,5.2h90.61c1.91-1.63,3.72-3.37,5.44-5.2,13.18-13.71,19.77-31.07,19.77-52.08s-6.59-38.28-19.77-52.35m-25.64,84.13c-6.23,7.84-14.6,11.75-25.1,11.75-10.33,0-18.61-3.92-24.84-11.75-6.23-7.83-9.35-18.43-9.35-31.78,0-13.35,3.12-23.95,9.35-31.78s14.51-11.75,24.84-11.75c10.5,0,18.87,3.92,25.1,11.75,6.05,7.66,9.08,18.25,9.08,31.78,0,13.53-3.03,24.12-9.08,31.78"></path>
    </g>
  </g>
</svg>
